<?xml version="1.0" encoding="UTF-8"?>
<svg id="Camada_1" data-name="Camada 1" xmlns="http://www.w3.org/2000/svg" viewBox="0 0 265.13 73.91">
  <defs>
    <style>
      .cls-1, .cls-2 {
        fill: #652235;
      }

      .cls-3 {
        fill: #f3e2e2;
      }

      .cls-2 {
        font-family: AndinaDemo, 'Andina Demo';
        font-size: 19.3px;
      }
    </style>
  </defs>
  <g>
    <circle class="cls-1" cx="36.96" cy="36.96" r="36.96"/>
    <g>
      <path class="cls-3" d="M32.79,41.8c.1,.03,.17,.09,.21,.18,.04,.08,.05,.18,.02,.27-.84,2.73-1.93,5.18-3.28,7.33s-3.19,3.58-5.52,4.26l-.66,.17c-.43,.11-1.04,.18-1.82,.21h-.41c-.27,0-.55,0-.85-.03-.15-.02-.29-.03-.44-.04-.08-.01-.17-.02-.26-.03-.04,0-.08,0-.12,0-.08-.01-.16-.02-.25-.03-.05-.01-.1-.02-.15-.03-.07-.02-.14-.03-.21-.05-1.02-.19-2.05-.58-3.07-1.18-2.12-1.33-3.62-3.12-4.5-5.38-.11-.26-.21-.52-.29-.79-.03-.08-.06-.17-.08-.25-.06-.18-.11-.35-.15-.52-.03-.16-.07-.31-.11-.47-.09-.34-.16-.68-.2-1.01-.07-.47-.12-.91-.14-1.32,0-.07,0-.14,0-.21-.03-.33-.03-.63,0-.91,0-.11,.01-.22,.02-.33,.01-.25,.04-.53,.08-.81,.02-.13,.04-.26,.07-.4,.05-.3,.11-.61,.2-.92,.02-.08,.05-.17,.08-.26,.04-.15,.08-.3,.14-.45,.01-.04,.02-.08,.03-.12,.02-.08,.05-.16,.08-.25,.02-.04,.04-.09,.06-.14,.03-.07,.06-.15,.08-.22,.07-.17,.14-.34,.21-.52,.03-.07,.06-.15,.09-.23,.07-.16,.15-.33,.25-.49,.04-.08,.08-.16,.13-.25,.52-1,1.16-1.96,1.92-2.88,.1-.11,.2-.23,.31-.35,.28-.33,.58-.65,.9-.94,.07-.07,.14-.14,.21-.2,.14-.14,.28-.26,.42-.39,.23-.18,.45-.36,.68-.54,1.75-1.3,3.42-2.09,5-2.37-.21-.07-.41-.16-.62-.25l-.13-.05s-.07-.03-.11-.04c-.15-.06-.36-.16-.63-.29-.56-.24-1.17-.68-1.85-1.32-.32-.33-.6-.71-.82-1.16-.22-.45-.35-.92-.38-1.41-.03-.9,.06-1.63,.26-2.17,.07-.27,.22-.57,.45-.91s.54-.66,.94-.95c.87-.55,1.79-.76,2.76-.63,.93,.14,1.65,.37,2.18,.7,.05,.02,.09,.04,.13,.07,.08,.05,.15,.09,.22,.13,.05,.03,.09,.06,.13,.08,.05,.03,.09,.06,.13,.09l.21,.15c1.01,.71,1.63,1.55,1.85,2.54,.02,.1,0,.18-.05,.27s-.13,.13-.22,.16c-.03,0-.05,0-.08,0-.08,0-.16-.03-.22-.08-.06-.05-.11-.12-.13-.2-.19-.8-.71-1.5-1.57-2.1h0s-.2-.11-.2-.11c-.05-.03-.1-.06-.17-.09-.02-.01-.04-.02-.06-.03-.06-.03-.12-.05-.2-.08-.04-.02-.08-.04-.13-.06-.5-.22-1.13-.34-1.89-.37-.77,0-1.41,.21-1.91,.62-.45,.43-.72,.86-.81,1.27-.15,.38-.25,.94-.3,1.66-.02,.65,.21,1.29,.69,1.9,.49,.58,.97,1.02,1.45,1.31,.23,.15,.41,.26,.54,.33,.13,.07,.2,.11,.2,.11,1.14,.49,2.2,.73,3.17,.73,.1,0,.19,.04,.25,.11,.07,.07,.1,.16,.1,.26s-.03,.18-.1,.25c-.07,.07-.15,.11-.25,.11h-.02v.03h-.63c-.08,.02-.17,.03-.27,.04-.14,.02-.29,.03-.45,.05-.25,.02-.53,.08-.83,.17-.03,0-.06,.01-.09,.03-1.47,.34-3.01,1.21-4.64,2.62-.15,.14-.29,.27-.44,.41-.04,.04-.09,.08-.14,.13-.11,.11-.23,.23-.34,.36-.06,.07-.13,.14-.19,.21-.25,.28-.49,.57-.71,.87-.1,.12-.19,.25-.28,.37-.62,.87-1.13,1.76-1.52,2.67-.76,1.88-1.13,3.42-1.1,4.6-.02,.21-.02,.44,0,.69,0,.08,0,.17,0,.26,0,.32,.02,.65,.06,1,0,.05,.01,.1,.02,.15,.02,.26,.05,.53,.11,.8,.03,.15,.06,.31,.08,.47,.03,.14,.06,.27,.1,.41,.02,.08,.04,.17,.06,.25,.05,.23,.12,.46,.2,.69,.29,.93,.74,1.82,1.33,2.67,.59,.86,1.3,1.58,2.14,2.17,1.78,1.11,3.44,1.66,4.99,1.68,.72,.03,1.27,.02,1.68-.04l.62-.1c2.17-.63,3.89-1.99,5.17-4.06,1.27-2.08,2.31-4.43,3.13-7.06,.03-.09,.09-.16,.18-.2,.08-.05,.18-.05,.28-.02Z"/>
      <path class="cls-3" d="M63.19,41.93c.1,.04,.16,.1,.2,.19s.05,.18,.02,.27c-.02,.07-.13,.32-.33,.77-.2,.45-.51,.95-.91,1.51s-.91,1.06-1.53,1.49c-.62,.43-1.35,.65-2.19,.65-.28,0-.59-.08-.93-.25s-.63-.5-.87-1.01l-.07-.14c-.04-.1-.1-.25-.15-.44-.12-.39-.21-.92-.27-1.61-.08-1.4-.02-3.08,.19-5.05,.12-1.22,.27-2.44,.42-3.67,.09-.72,.18-1.42,.25-2.11,.22-1.88,.34-3.37,.36-4.48,.02-.54-.01-1.16-.1-1.85-.06-.35-.16-.65-.3-.89-.07-.11-.15-.18-.23-.23-.08-.04-.19-.07-.32-.08-.29,0-.6,.13-.95,.36-.33,.24-.65,.54-.96,.89-.6,.71-1.15,1.48-1.63,2.3-.95,1.68-1.7,3.15-2.23,4.39-.53,1.21-.8,1.85-.83,1.93-.89,2.36-1.65,4.6-2.29,6.73-.64,2.13-1.09,3.76-1.36,4.91-.02,.08-.07,.15-.13,.2-.06,.05-.14,.08-.22,.08-.03,0-.06,0-.08,0-.1-.02-.17-.07-.22-.15-.05-.08-.07-.16-.06-.25h0c.31-2.99,.55-5.55,.71-7.68,.16-2.13,.28-4.23,.36-6.28,.07-2.05,.1-3.7,.08-4.93,0-.6-.02-1.31-.05-2.15-.03-.83-.12-1.72-.29-2.67-.09-.47-.23-.91-.41-1.29-.18-.39-.39-.55-.63-.48-.41,.03-.82,.17-1.24,.42-.41,.25-.79,.55-1.14,.9-.7,.71-1.31,1.44-1.83,2.19-.52,.75-.96,1.43-1.31,2.04s-.63,1.09-.82,1.46l-.29,.54c-1.46,3.02-2.72,6.13-3.78,9.32s-1.76,5.71-2.09,7.56c-.03,.56-.05,1.1-.08,1.62l-.21,4.96c-.04,.56-.18,1.02-.41,1.38-.23,.36-.5,.54-.8,.53-.3-.03-.55-.24-.72-.63-.18-.39-.25-.86-.22-1.42,.16-1.79,.3-3.44,.43-4.94,.26-3.14,.69-6.78,1.27-10.9,.1-.72,.22-1.43,.35-2.13,.04-.27,.09-.54,.14-.8,.17-.95,.35-1.87,.53-2.77,0-.02,.01-.05,.02-.08,.4-1.86,.83-3.51,1.29-4.97,.11-.36,.22-.71,.33-1.03,.07-.21,.14-.41,.22-.6,.04-.11,.09-.21,.13-.31,.07-.17,.13-.35,.19-.52,.14-.36,.27-.68,.41-.95l.61-1.25c.07-.14,.18-.21,.31-.22s.24,.03,.33,.12c.08,.1,.09,.24,0,.43l-.53,1.24c-.12,.26-.24,.57-.36,.93-.05,.16-.11,.33-.17,.51-.03,.1-.07,.21-.11,.31-.07,.19-.13,.38-.19,.59-.03,.11-.06,.23-.09,.34-.06,.22-.12,.45-.19,.68-.38,1.44-.73,3.09-1.05,4.93,0,.04-.01,.08-.02,.11-.14,.88-.27,1.78-.4,2.71-.03,.27-.07,.54-.1,.81-.09,.7-.17,1.41-.24,2.12-.18,1.77-.33,3.5-.45,5.19,1.18-4.24,2.85-8.63,4.98-13.16l.1-.23c.04-.09,.1-.2,.16-.34,.18-.37,.43-.87,.76-1.51,.33-.64,.75-1.36,1.25-2.16,.49-.81,1.11-1.62,1.85-2.43,.37-.4,.8-.77,1.3-1.11,.49-.35,1.07-.57,1.74-.66l.25-.03s.01,0,.03,0c.1,0,.2,.01,.3,.03,.22,.05,.42,.14,.58,.26,.32,.25,.55,.53,.69,.81,.28,.55,.47,1.09,.58,1.61,.22,1.04,.35,2,.4,2.87,.06,.87,.08,1.61,.08,2.22,.02,1.27-.04,2.94-.19,5.02-.15,2.07-.36,4.17-.62,6.31-.08,.73-.17,1.44-.26,2.12,.62-2.01,1.34-4.12,2.17-6.31,.01-.06,.25-.72,.73-2,.47-1.28,1.15-2.82,2.06-4.6,.45-.87,1-1.73,1.64-2.56,.32-.41,.7-.78,1.14-1.13,.44-.37,.99-.59,1.65-.66,.33-.02,.66,.05,.99,.2,.32,.17,.56,.39,.74,.65,.3,.5,.49,.97,.54,1.41,.14,.86,.19,1.57,.16,2.14-.03,1.2-.19,2.74-.48,4.63-.14,.86-.28,1.75-.43,2.66-.18,1.04-.35,2.06-.5,3.07-.3,1.94-.44,3.56-.43,4.88,.02,.64,.08,1.12,.17,1.46,.09,.33,.14,.49,.15,.49,.23,.55,.61,.82,1.14,.82,.71,0,1.33-.2,1.87-.59s.98-.85,1.34-1.36c.36-.51,.62-.96,.8-1.35,.18-.39,.27-.6,.27-.63,.03-.1,.09-.16,.18-.2,.09-.04,.18-.05,.27-.02Z"/>
    </g>
  </g>
  <text class="cls-2" transform="translate(103.67 45.55)"><tspan x="0" y="0">Emilly e Max</tspan></text>
</svg>